<svg xmlns="http://www.w3.org/2000/svg" width="61" height="45.75" viewBox="0 0 61 45.75">
  <path id="Icon_awesome-car" data-name="Icon awesome-car" d="M59.569,17.844H52.436l-1.983-4.956A13.276,13.276,0,0,0,38.065,4.5H22.934a13.28,13.28,0,0,0-12.389,8.388L8.562,17.844H1.431A1.429,1.429,0,0,0,.044,19.62L.759,22.48a1.429,1.429,0,0,0,1.387,1.083H4.537a7.572,7.572,0,0,0-2.631,5.719V35a7.563,7.563,0,0,0,1.906,5v6.442A3.813,3.813,0,0,0,7.625,50.25h3.813a3.813,3.813,0,0,0,3.813-3.813V42.625h30.5v3.813a3.813,3.813,0,0,0,3.813,3.813h3.813a3.813,3.813,0,0,0,3.813-3.813V40a7.558,7.558,0,0,0,1.906-5V29.281a7.575,7.575,0,0,0-2.629-5.719h2.391a1.429,1.429,0,0,0,1.387-1.083l.715-2.859a1.43,1.43,0,0,0-1.388-1.776ZM17.624,15.719a5.719,5.719,0,0,1,5.31-3.594H38.065a5.719,5.719,0,0,1,5.31,3.594l2.374,5.937H15.25l2.374-5.937ZM11.437,34.976a3.6,3.6,0,0,1-3.813-3.8,3.6,3.6,0,0,1,3.813-3.8c2.288,0,5.719,3.421,5.719,5.7S13.725,34.976,11.437,34.976Zm38.125,0c-2.287,0-5.719.38-5.719-1.9s3.431-5.7,5.719-5.7a3.6,3.6,0,0,1,3.813,3.8A3.6,3.6,0,0,1,49.562,34.976Z" transform="translate(0 -4.5)" fill="#ffab02"/>
</svg>
