<svg xmlns="http://www.w3.org/2000/svg" width="71" height="56.8" viewBox="0 0 71 56.8">
  <path id="Icon_awesome-car-crash" data-name="Icon awesome-car-crash" d="M15.892,24.5,14.514,29.64a10.46,10.46,0,0,0-.267,3.815l-3.9,3.215A1,1,0,0,1,8.72,35.7l1.713-8.507a1,1,0,0,0-.887-1.2L.908,25.156a1,1,0,0,1-.459-1.835l7.227-4.8a1,1,0,0,0,.22-1.474l-5.515-6.7A1,1,0,0,1,3.355,8.72l8.507,1.713a1,1,0,0,0,1.2-.887L13.9.908A1,1,0,0,1,15.733.449l4.8,7.226a1,1,0,0,0,1.474.22l6.7-5.515a1,1,0,0,1,1.622.973l-1.257,6.23c-.3.338-.6.676-.877,1.043l-3.567,4.767-1.188,1.589A10.7,10.7,0,0,0,15.892,24.5ZM70.757,39.2l-1.378,5.143A6.952,6.952,0,0,1,67.432,47.6a7.418,7.418,0,0,1-.972.777l-1.552,5.794a3.547,3.547,0,0,1-4.348,2.51l-3.429-.919a3.55,3.55,0,0,1-2.51-4.348l.919-3.429L28.108,40.632l-.919,3.429a3.55,3.55,0,0,1-4.348,2.51l-3.429-.919A3.548,3.548,0,0,1,16.9,41.3l1.552-5.794A7.39,7.39,0,0,1,18,34.352a6.951,6.951,0,0,1-.058-3.794l1.378-5.144a7.048,7.048,0,0,1,4.092-4.683,7.137,7.137,0,0,1,2.051-.524l2.011-2.688,3.567-4.767a12.5,12.5,0,0,1,4.209-3.589,12.179,12.179,0,0,1,1.67-.72,12.315,12.315,0,0,1,3.577-.67,12.525,12.525,0,0,1,3.709.422l13.61,3.646a12.5,12.5,0,0,1,3.422,1.49,12.36,12.36,0,0,1,5.7,9.04l.706,5.912.4,3.334a7.154,7.154,0,0,1,2.523,3.32,7.006,7.006,0,0,1,.194,4.259ZM28.353,26a3.349,3.349,0,0,0-4.345,2.5,3.348,3.348,0,0,0,2.513,4.336c2.058.551,5.052,1.721,5.6-.331S30.41,26.548,28.353,26Zm32.239,3.125-.706-5.912A5.324,5.324,0,0,0,55.977,18.7l-13.61-3.646A5.326,5.326,0,0,0,36.725,17l-3.567,4.767L52.24,26.883l8.352,2.239Zm2.051,6.063c-2.058-.551-5.968,1.7-6.517,3.749s2.628,2.536,4.686,3.087a3.539,3.539,0,1,0,1.832-6.836Z" transform="translate(0 0.001)" fill="#ffab02"/>
</svg>
