<svg xmlns="http://www.w3.org/2000/svg" width="45.75" height="61" viewBox="0 0 45.75 61">
  <path id="Icon_awesome-file-medical" data-name="Icon awesome-file-medical" d="M44.916,12.51,33.252.834A2.857,2.857,0,0,0,31.227,0H30.5V15.25H45.75v-.727A2.85,2.85,0,0,0,44.916,12.51ZM26.688,16.2V0H2.859A2.853,2.853,0,0,0,0,2.859V58.141A2.853,2.853,0,0,0,2.859,61H42.891a2.853,2.853,0,0,0,2.859-2.859V19.063h-16.2A2.868,2.868,0,0,1,26.688,16.2Zm7.625,19.063v5.719a.956.956,0,0,1-.953.953H26.688v6.672a.956.956,0,0,1-.953.953H20.016a.956.956,0,0,1-.953-.953V41.938H12.391a.956.956,0,0,1-.953-.953V35.266a.956.956,0,0,1,.953-.953h6.672V27.641a.956.956,0,0,1,.953-.953h5.719a.956.956,0,0,1,.953.953v6.672h6.672A.956.956,0,0,1,34.313,35.266Z" fill="#ffab02"/>
</svg>
