<svg xmlns="http://www.w3.org/2000/svg" xmlns:xlink="http://www.w3.org/1999/xlink" width="226.659" height="64.351" viewBox="0 0 226.659 64.351">
  <defs>
    <clipPath id="clip-path">
      <rect id="Rectángulo_3" data-name="Rectángulo 3" width="64.351" height="64.351" transform="translate(0 0)" fill="#ffab02"/>
    </clipPath>
    <clipPath id="clip-path-2">
      <rect id="Rectángulo_1" data-name="Rectángulo 1" width="42.508" height="41.984" fill="#ffab02"/>
    </clipPath>
    <clipPath id="clip-path-3">
      <rect id="Rectángulo_2" data-name="Rectángulo 2" width="59.001" height="51.609" fill="#ffab02"/>
    </clipPath>
  </defs>
  <g id="Grupo_3945" data-name="Grupo 3945" transform="translate(-2546.881 -291.65)">
    <g id="Grupo_10" data-name="Grupo 10" transform="translate(2359.785 165.674)">
      <text id="Two_Guys_REPARACIONES" data-name="Two Guys 
REPARACIONES" transform="translate(260.755 155.716)" fill="#fff" font-size="17" font-family="Montserrat-ExtraBold, Montserrat" font-weight="800" letter-spacing="0.045em"><tspan x="0" y="0">TWO GUYS </tspan><tspan x="0" y="16">REPARACIONES</tspan></text>
      <g id="Grupo_8" data-name="Grupo 8" transform="translate(187.096 125.976)">
        <g id="Grupo_7" data-name="Grupo 7" transform="translate(0 0)" clip-path="url(#clip-path)">
          <path id="Trazado_1" data-name="Trazado 1" d="M38.18,354a1.658,1.658,0,0,1,.135-.659q-.075.333-.135.659" transform="translate(-32.83 -303.828)" fill="#ffab02"/>
          <g id="Grupo_3" data-name="Grupo 3" transform="translate(21.842 22.367)" style="isolation: isolate">
            <g id="Grupo_2" data-name="Grupo 2">
              <g id="Grupo_1" data-name="Grupo 1" clip-path="url(#clip-path-2)">
                <path id="Trazado_2" data-name="Trazado 2" d="M191.9,159.62q.277.724.51,1.464a1.641,1.641,0,0,0,1.355,1.158l3.177.466a1.674,1.674,0,0,1,1.44,1.666v10.109a1.674,1.674,0,0,1-1.44,1.666l-3.177.466a1.642,1.642,0,0,0-1.355,1.158,27.2,27.2,0,0,1-1.779,4.292,1.664,1.664,0,0,0,.141,1.765l1.92,2.584a1.66,1.66,0,0,1-.155,2.188l-7.158,7.158a1.66,1.66,0,0,1-2.188.155l-2.584-1.92a1.664,1.664,0,0,0-1.765-.141,27.184,27.184,0,0,1-4.292,1.779,1.642,1.642,0,0,0-1.158,1.356l-.466,3.176a1.674,1.674,0,0,1-1.666,1.44H161.157a1.675,1.675,0,0,1-1.666-1.44l-.466-3.176a1.642,1.642,0,0,0-1.158-1.356q-1.009-.317-1.989-.717c8.2-3.68,18.218-11.79,22.528-23.587l9.829-2.191,3.669-9.516Z" transform="translate(-155.879 -159.62)" fill="#ffab02" fill-rule="evenodd"/>
              </g>
            </g>
          </g>
          <g id="Grupo_6" data-name="Grupo 6" transform="translate(0 0)" style="isolation: isolate">
            <g id="Grupo_5" data-name="Grupo 5">
              <g id="Grupo_4" data-name="Grupo 4" clip-path="url(#clip-path-3)">
                <path id="Trazado_3" data-name="Trazado 3" d="M40.519,5.972a28.6,28.6,0,0,1,4.292,1.779,1.636,1.636,0,0,0,1.765-.141l2.584-1.92a1.66,1.66,0,0,1,2.188.155L58.506,13a1.66,1.66,0,0,1,.155,2.188l-1.92,2.584A1.665,1.665,0,0,0,56.6,19.54c.409.793.785,1.61,1.119,2.446l-4.936-6.378-3.489,9.051-7.676,1.66-4.347-7.806L40.76,9.461l-8.392,1.816-3.718,9.642,5.491,9.3C31.555,52.848-5.2,62.646,15.489,33.674A37.779,37.779,0,0,0,7.441,44.191a28.89,28.89,0,0,1-1.469-3.671,1.641,1.641,0,0,0-1.355-1.158L1.44,38.9A1.674,1.674,0,0,1,0,37.23V27.121a1.675,1.675,0,0,1,1.44-1.666l3.177-.466a1.641,1.641,0,0,0,1.355-1.158A27.2,27.2,0,0,1,7.751,19.54a1.635,1.635,0,0,0-.141-1.765L5.69,15.191A1.66,1.66,0,0,1,5.845,13L13,5.845a1.66,1.66,0,0,1,2.188-.155l2.584,1.92a1.657,1.657,0,0,0,1.779.141,27.848,27.848,0,0,1,4.278-1.779,1.641,1.641,0,0,0,1.158-1.355l.466-3.177A1.675,1.675,0,0,1,27.121,0H37.23A1.674,1.674,0,0,1,38.9,1.44l.466,3.177a1.641,1.641,0,0,0,1.158,1.355Z" transform="translate(0 0)" fill="#ffab02" fill-rule="evenodd"/>
              </g>
            </g>
          </g>
          <path id="Trazado_4" data-name="Trazado 4" d="M72.9,84.377l7.675-1.66,3.489-9.051L89.2,80.3l-3.717,9.642-9.829,2.191C69.533,108.889,51.9,118.208,44.3,117.957h0c-11.853.654-9.883-14.7,2.472-26.226C26.09,120.7,62.841,110.906,65.428,88.275l-5.491-9.3,3.718-9.642,8.391-1.816L68.557,76.57Z" transform="translate(-31.286 -58.058)" fill="#022c43" fill-rule="evenodd"/>
        </g>
      </g>
    </g>
    <text id="WEBSITE_COLOMBIA" data-name="WEBSITE COLOMBIA" transform="translate(2622 345.325)" fill="#fff" font-size="6" font-family="Montserrat-SemiBold, Montserrat" font-weight="600" letter-spacing="0.415em"><tspan x="0" y="0">WEBSITE COLOMBIA</tspan></text>
  </g>
</svg>
