<svg xmlns="http://www.w3.org/2000/svg" width="37" height="37" viewBox="0 0 37 37">
  <g id="Grupo_3946" data-name="Grupo 3946" transform="translate(-1621 -3551)">
    <circle id="Elipse_260" data-name="Elipse 260" cx="18.5" cy="18.5" r="18.5" transform="translate(1621 3551)" fill="#fff"/>
    <path id="Icon_awesome-envelope" data-name="Icon awesome-envelope" d="M19.964,9.54a.239.239,0,0,1,.386.187v8.128a1.908,1.908,0,0,1-1.908,1.908H1.908A1.908,1.908,0,0,1,0,17.854V9.73a.238.238,0,0,1,.386-.187c.89.692,2.071,1.57,6.125,4.515.839.612,2.254,1.9,3.664,1.892,1.419.012,2.862-1.3,3.668-1.892C17.9,11.114,19.074,10.231,19.964,9.54Zm-9.789,5.135c.922.016,2.25-1.161,2.917-1.645,5.274-3.827,5.676-4.161,6.892-5.115a.951.951,0,0,0,.366-.751V6.408A1.908,1.908,0,0,0,18.442,4.5H1.908A1.908,1.908,0,0,0,0,6.408v.755a.957.957,0,0,0,.366.751c1.216.95,1.618,1.288,6.892,5.115C7.925,13.514,9.253,14.691,10.175,14.675Z" transform="translate(1629.229 3557.422)" fill="#022c43"/>
  </g>
</svg>
