<svg xmlns="http://www.w3.org/2000/svg" width="37" height="37" viewBox="0 0 37 37">
  <g id="Grupo_3956" data-name="Grupo 3956" transform="translate(-1755 -3689)">
    <circle id="Elipse_259" data-name="Elipse 259" cx="18.5" cy="18.5" r="18.5" transform="translate(1755 3689)" fill="#fff"/>
    <path id="Icon_awesome-phone-alt" data-name="Icon awesome-phone-alt" d="M21.275,15.476l-4.791-2.053a1.027,1.027,0,0,0-1.2.3L13.165,16.31A15.854,15.854,0,0,1,5.586,8.731L8.178,6.609a1.024,1.024,0,0,0,.3-1.2L6.42.621A1.033,1.033,0,0,0,5.244.026L.8,1.053a1.027,1.027,0,0,0-.8,1A19.845,19.845,0,0,0,19.847,21.9a1.027,1.027,0,0,0,1-.8l1.027-4.448a1.039,1.039,0,0,0-.6-1.181Z" transform="translate(1762.55 3695.952)" fill="#022c43"/>
  </g>
</svg>
