<svg xmlns="http://www.w3.org/2000/svg" width="61.008" height="61.01" viewBox="0 0 61.008 61.01">
  <path id="Icon_awesome-tools" data-name="Icon awesome-tools" d="M59.708,47.147,45.756,33.195A8.847,8.847,0,0,0,35.58,31.539l-12.7-12.7v-7.4L7.628,0,0,7.626,11.441,22.877h7.4l12.7,12.7A8.866,8.866,0,0,0,33.2,45.753L47.15,59.706a4.43,4.43,0,0,0,6.279,0l6.279-6.279a4.451,4.451,0,0,0,0-6.279ZM39.524,26.809A12.536,12.536,0,0,1,48.448,30.5l2.311,2.311A16.866,16.866,0,0,0,55.979,29.3a17.135,17.135,0,0,0,4.516-16.288,1.426,1.426,0,0,0-2.395-.655L49.235,21.22l-8.09-1.346L39.8,11.784l8.865-8.865A1.438,1.438,0,0,0,47.984.512,17.164,17.164,0,0,0,31.708,5.028,16.885,16.885,0,0,0,26.8,17.372l9.782,9.782a12.98,12.98,0,0,1,2.943-.346Zm-12.38,9.77-6.756-6.756L2.231,47.993A7.625,7.625,0,1,0,13.014,58.776L27.74,44.049a12.8,12.8,0,0,1-.6-7.471ZM7.628,56.238a2.86,2.86,0,1,1,2.86-2.86A2.868,2.868,0,0,1,7.628,56.238Z" transform="translate(0.004)" fill="#ffab02"/>
</svg>
